<svg xmlns="http://www.w3.org/2000/svg" width="512" height="512" viewBox="0 0 512 512">
  <defs>
    <linearGradient id="g" x1="0" y1="0" x2="1" y2="1">
      <stop offset="0" stop-color="#e60023"/>
      <stop offset="1" stop-color="#ff6a00"/>
    </linearGradient>
  </defs>
  <rect width="512" height="512" rx="112" fill="url(#g)"/>
  <g fill="#fff" opacity="0.95">
    <path d="M256 162c-65.2 0-118 52.8-118 118s52.8 118 118 118 118-52.8 118-118-52.8-118-118-118zm0 52c36.4 0 66 29.6 66 66s-29.6 66-66 66-66-29.6-66-66 29.6-66 66-66z"/>
    <path d="M154 198h46l18-22c8-10 20-16 33-16h10c13 0 25 6 33 16l18 22h46c19.9 0 36 16.1 36 36v144c0 19.9-16.1 36-36 36H154c-19.9 0-36-16.1-36-36V234c0-19.9 16.1-36 36-36zm0 52v128h204V250H154z" opacity="0.9"/>
  </g>
</svg>
